<?xml version="1.0" encoding="iso-8859-1"?>
<!-- Generator: Adobe Illustrator 19.0.0, SVG Export Plug-In . SVG Version: 6.00 Build 0)  -->
<svg version="1.1" id="Capa_1" xmlns="http://www.w3.org/2000/svg" xmlns:xlink="http://www.w3.org/1999/xlink" x="0px" y="0px"
	 viewBox="0 0 512 512" style="enable-background:new 0 0 512 512;" xml:space="preserve">
<g>
	<g>
		<path d="M256,49.518c-39.33,0-71.328,31.998-71.328,71.328c0,19.404,7.934,32.875,23.6,40.118v5.598
			c0,9.681,7.876,17.557,17.557,17.557c3.738,0,7.207-1.174,10.057-3.173c2.851,1.999,6.319,3.173,10.057,3.173
			c3.738,0,7.207-1.174,10.057-3.173c2.851,1.999,6.319,3.173,10.057,3.173c3.738,0,7.207-1.174,10.057-3.173
			c2.85,1.999,6.319,3.173,10.057,3.173c9.681,0,17.557-7.876,17.557-17.557v-5.598c15.667-7.243,23.6-20.714,23.6-40.118
			C327.328,81.515,295.33,49.518,256,49.518z M293.776,148.814c-3.021,1.045-5.048,3.891-5.048,7.088v10.66
			c0,1.41-1.147,2.557-2.557,2.557c-1.41,0-2.557-1.147-2.557-2.557c0-4.142-3.358-7.5-7.5-7.5c-4.142,0-7.5,3.358-7.5,7.5
			c0,1.41-1.147,2.557-2.557,2.557c-1.41,0-2.557-1.147-2.557-2.557c0-4.142-3.358-7.5-7.5-7.5c-4.142,0-7.5,3.358-7.5,7.5
			c0,1.41-1.147,2.557-2.557,2.557c-1.41,0-2.557-1.147-2.557-2.557c0-4.142-3.358-7.5-7.5-7.5c-4.142,0-7.5,3.358-7.5,7.5
			c0,1.41-1.147,2.557-2.557,2.557c-1.41,0-2.557-1.147-2.557-2.557v-10.66c0-3.197-2.026-6.042-5.048-7.088
			c-13.004-4.499-18.552-12.863-18.552-27.968c0-31.059,25.269-56.328,56.328-56.328c31.06,0,56.328,25.269,56.328,56.328
			C312.328,135.951,306.78,144.315,293.776,148.814z"/>
	</g>
</g>
<g>
	<g>
		<path d="M222.209,122.183c-4.142,0-7.5,3.358-7.5,7.5v6.116c0,4.142,3.358,7.5,7.5,7.5c4.142,0,7.5-3.358,7.5-7.5v-6.116
			C229.709,125.541,226.351,122.183,222.209,122.183z"/>
	</g>
</g>
<g>
	<g>
		<path d="M289.791,122.183c-4.142,0-7.5,3.358-7.5,7.5v6.116c0,4.142,3.358,7.5,7.5,7.5c4.142,0,7.5-3.358,7.5-7.5v-6.116
			C297.291,125.541,293.933,122.183,289.791,122.183z"/>
	</g>
</g>
<g>
	<g>
		<path d="M279.636,293.691c-3.12-2.726-7.856-2.408-10.583,0.711c-3.171,3.628-7.929,5.709-13.053,5.709
			c-5.124,0-9.882-2.081-13.054-5.71c-2.726-3.119-7.464-3.438-10.583-0.711c-3.119,2.726-3.437,7.464-0.711,10.583
			c6.021,6.889,14.896,10.839,24.348,10.839c9.452,0,18.326-3.95,24.347-10.838C283.073,301.155,282.755,296.418,279.636,293.691z"
			/>
	</g>
</g>
<g>
	<g>
		<path d="M457.136,193.659c0.614-1.018,1.23-2.038,1.838-3.044c23.162-38.355,38.463-63.694,29.191-80.125
			c-4.679-8.291-14.655-12.322-30.498-12.322c-35.043,0-52.125-18.161-71.902-39.188C359.762,31.333,330.291,0,256,0
			c-66.77,0-97.234,25.453-120.548,49.309c-2.895,2.963-2.84,7.711,0.122,10.606c2.962,2.895,7.71,2.84,10.605-0.122
			C167.359,38.122,195.057,15,256,15c67.807,0,93.749,27.582,118.837,54.255c21.24,22.582,41.302,43.912,82.829,43.912
			c9.535,0,15.727,1.667,17.435,4.694c1.337,2.369,1.649,8.015-4.456,21.456c-5.408,11.907-14.261,26.568-24.512,43.543
			c-3.039,5.032-6.163,10.205-9.346,15.553H75.212c-3.183-5.348-6.307-10.521-9.346-15.553
			c-10.251-16.976-19.104-31.637-24.512-43.543c-6.105-13.441-5.792-19.086-4.456-21.456c1.709-3.027,7.901-4.694,17.435-4.694
			c34.362,0,54.431-15.201,71-31.627c2.942-2.917,2.962-7.665,0.046-10.606c-2.917-2.942-7.666-2.961-10.606-0.046
			c-16.988,16.841-33.024,27.279-60.44,27.279c-15.843,0-25.819,4.031-30.498,12.322c-9.272,16.431,6.029,41.77,29.191,80.125
			c0.608,1.006,1.224,2.027,1.838,3.044c-17.326,6.395-29.381,22.994-29.381,42.281c0,24.864,20.228,45.091,45.091,45.091
			c1.166,0,2.334-0.063,3.501-0.155c11.312,31.533,30.805,59.28,55.966,80.729c-8.533,4.814-20.72,13.106-32.287,26.034
			C79.07,408.52,58.527,445.923,66.761,505.526c0.512,3.71,3.684,6.474,7.429,6.474h363.62c3.746,0,6.917-2.763,7.429-6.474
			c8.234-59.603-12.309-97.006-30.992-117.887c-11.567-12.928-23.754-21.22-32.288-26.034c25.16-21.449,44.654-49.196,55.966-80.729
			c1.167,0.092,2.335,0.155,3.501,0.155c24.863,0,45.091-20.228,45.091-45.091C486.517,216.653,474.462,200.053,457.136,193.659z
			 M40.482,235.939c0-13.854,9.311-25.636,22.299-29.076c0.182,0.306,0.363,0.611,0.545,0.918c0.298,0.503-0.084,2.108-0.107,2.755
			c-0.655,18.64,1.378,37.441,6.18,55.472C53.348,265.389,40.482,252.139,40.482,235.939z M344.017,213.413h17.944
			c2.767,0,5.017,2.251,5.017,5.018c0,2.767-2.251,5.018-5.018,5.018h-17.942c-2.767,0-5.018-2.251-5.018-5.018
			C339,215.664,341.25,213.413,344.017,213.413z M150.039,213.413h17.944c2.767,0,5.017,2.251,5.017,5.018
			c0,2.767-2.251,5.018-5.018,5.018H150.04c-2.767,0-5.018-2.251-5.018-5.018C145.022,215.664,147.272,213.413,150.039,213.413z
			 M130.685,213.412c-0.417,1.607-0.662,3.283-0.662,5.018c-0.001,11.039,8.979,20.019,20.017,20.019h1.471v11.905
			c0,4.143,3.358,7.5,7.5,7.5c4.142,0,7.5-3.357,7.5-7.5v-11.905h1.471c11.038,0,20.018-8.979,20.018-20.018
			c0-1.735-0.245-3.411-0.662-5.018h137.325c-0.417,1.607-0.662,3.283-0.662,5.018c0,11.038,8.98,20.018,20.018,20.018h1.471v11.905
			c0,4.143,3.358,7.5,7.5,7.5c4.142,0,7.5-3.357,7.5-7.5v-11.905h1.471c11.038,0,20.018-8.979,20.018-20.018
			c0-1.735-0.245-3.411-0.662-5.018h10.569c-0.692,22.695-4.811,50.669-18.999,68.491c-8.726,10.959-17.25,13.012-18.128,13.198
			c-0.18,0.024-0.195,0.034-0.404,0.081c-3.227,0.726-6.438,1.095-9.544,1.095c-13.826,0.001-25.547-7.32-37.956-15.072
			C292.817,272.438,276.908,262.5,256,262.5s-36.819,9.938-50.857,18.705c-12.409,7.751-24.13,15.072-37.954,15.072
			c-3.103,0-6.314-0.368-9.542-1.095c-0.151-0.034-0.302-0.063-0.455-0.088c-0.081-0.013-8.509-1.771-17.198-12.117
			c-8.587-10.224-18.723-30.494-19.881-69.565H130.685z M171,497h-40.5v-46.333c0-4.142-3.358-7.5-7.5-7.5
			c-4.142,0-7.5,3.358-7.5,7.5V497H80.832c-4.199-40.088,5.086-73.319,27.641-98.843c13.363-15.123,27.93-23.224,34.478-26.366
			c8.839,6.314,18.244,11.899,28.049,16.656V497z M326.001,497H186V394.973c11.842,4.564,24.031,7.917,36.49,10.067
			c-0.055,0.784-0.089,1.571-0.089,2.361c0,2.634,0.314,5.194,0.89,7.654c-16.983,17.076-25.799,32.955-26.209,47.241
			c-0.322,11.231,8.34,20.735,19.311,21.186c4.944,0.204,9.715-1.394,13.508-4.457c3.574,2.887,8.063,4.474,12.667,4.474
			c4.842,0,9.617-1.721,13.421-4.846c3.827,3.125,8.602,4.846,13.444,4.846c4.604,0,9.093-1.587,12.667-4.474
			c3.577,2.889,8.056,4.474,12.667,4.475c11.373,0.001,20.473-9.972,20.151-21.203c-0.409-14.287-9.225-30.166-26.208-47.242
			c0.576-2.46,0.89-5.021,0.89-7.654c0-0.79-0.034-1.577-0.089-2.361c12.459-2.151,24.648-5.503,36.49-10.067V497z M247.542,439.92
			c12.32,3.178,25.755-0.981,34.011-10.678c11.785,12.662,18.102,24.134,18.37,33.484c0.126,4.397-4.885,7.607-8.491,4.555
			c-5.335-4.514-13.37-4.376-18.714,0.04c-2.131,1.761-5.182,1.397-7.243-0.285c-5.467-4.465-13.484-4.464-18.95,0
			c-2.059,1.682-5.117,2.044-7.243,0.286c-5.344-4.418-13.377-4.553-18.709-0.044c-3.62,3.062-8.623-0.151-8.496-4.551
			c0.268-9.349,6.585-20.822,18.37-33.484C234.897,434.47,240.858,438.196,247.542,439.92z M237.405,407.03
			c1.176,0.11,2.355,0.205,3.535,0.294c4.967,0.376,10.043,0.577,15.06,0.577c1.528,0,18.605-0.368,18.595-0.871
			c0.002,0.124,0.004,0.248,0.003,0.371c-0.003,3.138-0.826,6.268-2.342,9.014C269.053,422.214,262.631,426,256,426
			c-7.406,0-14.332-4.636-17.175-11.475C237.841,412.158,237.354,409.592,237.405,407.03z M403.527,398.157
			c22.555,25.524,31.84,58.754,27.641,98.843H396.5v-46.333c0-4.142-3.358-7.5-7.5-7.5c-4.142,0-7.5,3.358-7.5,7.5V497H341V388.447
			c9.806-4.757,19.209-10.34,28.048-16.656C375.607,374.939,390.168,383.039,403.527,398.157z M432.467,240.004
			c-10.253,78.588-73.475,141.052-153.126,151.387c-15.47,2.007-31.212,1.998-46.681,0
			c-79.65-10.334-142.872-72.798-153.126-151.386c-1.147-8.809-1.606-17.712-1.393-26.592h26.962
			c2.364,85.061,44.884,95.563,49.387,96.435c4.263,0.949,8.534,1.43,12.699,1.43c18.123,0,32.244-8.82,45.9-17.35
			C226.615,285.48,239.391,277.5,256,277.5c16.608,0,29.382,7.979,42.907,16.428c13.656,8.53,27.773,17.351,45.905,17.35
			c4.167,0,8.438-0.481,12.698-1.43c4.503-0.873,47.023-11.375,49.388-96.435h26.962
			C434.073,222.291,433.617,231.198,432.467,240.004z M442.601,266.008c0.754-2.831,1.417-5.682,2.036-8.543
			c3.527-16.285,4.889-33.043,4.035-49.684c0.182-0.307,0.364-0.612,0.545-0.918c12.99,3.441,22.3,15.223,22.3,29.076
			C471.517,252.138,458.65,265.388,442.601,266.008z"/>
	</g>
</g>
<g>
</g>
<g>
</g>
<g>
</g>
<g>
</g>
<g>
</g>
<g>
</g>
<g>
</g>
<g>
</g>
<g>
</g>
<g>
</g>
<g>
</g>
<g>
</g>
<g>
</g>
<g>
</g>
<g>
</g>
</svg>
