<?xml version="1.0" encoding="iso-8859-1"?>
<!-- Generator: Adobe Illustrator 19.0.0, SVG Export Plug-In . SVG Version: 6.00 Build 0)  -->
<svg version="1.1" id="Capa_1" xmlns="http://www.w3.org/2000/svg" xmlns:xlink="http://www.w3.org/1999/xlink" x="0px" y="0px"
	 viewBox="0 0 512.001 512.001" style="enable-background:new 0 0 512.001 512.001;" xml:space="preserve">
<g>
	<g>
		<path d="M264.198,293.945c-3.119-2.726-7.857-2.407-10.583,0.711c-3.166,3.622-7.915,5.699-13.03,5.699s-9.865-2.077-13.03-5.699
			c-2.727-3.119-7.464-3.437-10.583-0.711c-3.119,2.726-3.437,7.464-0.711,10.583c6.015,6.881,14.88,10.827,24.324,10.827
			c9.444,0,18.31-3.946,24.324-10.828C267.635,301.409,267.317,296.67,264.198,293.945z"/>
	</g>
</g>
<g>
	<g>
		<path d="M501.422,156.593c-3.581-14.016-12.658-25.591-25.011-32.359c6.793-12.256,8.35-26.918,3.885-40.733
			c-0.741-2.292-2.538-4.088-4.829-4.829c-5.129-1.658-10.471-2.499-15.875-2.499c-13.737,0-26.651,5.348-36.361,15.059
			c-0.668,0.668-1.299,1.367-1.927,2.068c-10.1-14.285-21.965-27.444-35.426-39.133C345.651,19.237,294.052,0,240.586,0
			c-54.06,0-106.097,19.625-146.524,55.259c-3.107,2.739-3.406,7.479-0.667,10.586c2.739,3.107,7.478,3.405,10.586,0.667
			C141.667,33.294,190.18,15,240.586,15c49.853,0,97.959,17.932,135.457,50.493c15.238,13.231,28.284,28.479,38.842,45.174
			c9.663,15.281,17.47,31.976,22.57,49.339c0.003,0.011,0.007,0.023,0.01,0.034c1.387,4.595,2.605,9.232,3.648,13.88
			c-1.301-0.471-2.626-0.877-3.968-1.226c-5.343-1.39-10.928-1.78-16.413-1.166c-2.358,0.264-4.522,1.692-5.692,3.754
			c-1.784,3.145-0.507,6.524,0.122,9.802c0.865,4.514,1.552,9.092,2.059,13.699H63.95c0.506-4.607,1.194-9.186,2.059-13.699
			c0.684-3.562,2.032-7.208-0.305-10.47c-2.376-3.317-6.622-3.374-10.315-3.374c-3.826,0-7.662,0.491-11.365,1.455
			c-1.347,0.351-2.677,0.758-3.983,1.232c7.151-31.847,22.057-61.589,43.621-86.798c2.692-3.147,2.324-7.882-0.824-10.574
			c-3.147-2.693-7.882-2.324-10.574,0.824c-26.462,30.935-43.584,68.24-49.625,108.029c-7.613,8.07-12.294,18.934-12.294,30.877
			c0,24.022,18.902,43.709,42.613,44.977c9.432,39.724,31.516,74.693,61.814,100.524c-3.333,1.88-7.21,4.277-11.399,7.286
			c-24.008,17.238-62.655,57.886-51.8,136.455c0.512,3.71,3.684,6.474,7.429,6.474h363.17c3.746,0,6.917-2.763,7.429-6.474
			c2.668-19.312,2.492-37.618-0.525-54.412c-0.732-4.076-4.634-6.787-8.708-6.056c-4.077,0.732-6.789,4.631-6.056,8.708
			c2.402,13.371,2.807,27.887,1.214,43.233h-34.604V391.072c9.223,8.742,18.977,20.914,25.879,37.206
			c1.616,3.813,6.016,5.597,9.832,3.98c3.814-1.616,5.596-6.017,3.98-9.832c-11.379-26.861-29.561-43.84-42.816-53.358
			c-4.186-3.005-8.062-5.403-11.395-7.283c30.298-25.831,52.382-60.801,61.814-100.524c23.711-1.268,42.613-20.955,42.613-44.977
			c0-11.947-4.685-22.815-12.302-30.886c-0.187-1.233-0.383-2.463-0.591-3.691c0.83,0.041,1.66,0.07,2.492,0.07
			c15.271,0,29.663-6.751,39.486-18.522C501.457,161.405,502.018,158.927,501.422,156.593z M49.971,245.839
			c-13.99-2.559-24.627-14.838-24.627-29.556c0-8.73,3.747-16.599,9.712-22.093c4.273-3.936,9.696-6.607,15.432-7.552
			c-0.265,1.58-0.502,3.164-0.73,4.771C47.207,209.436,47.279,227.835,49.971,245.839z M100.25,497H65.645
			c-2.957-28.407,0.943-53.615,11.617-75.009c6.595-13.217,15.042-23.386,22.988-30.917V497z M328.494,213.783h17.92
			c2.758,0,5.002,2.244,5.002,5.002s-2.244,5.002-5.002,5.002h-17.92c-2.758,0-5.002-2.244-5.002-5.002
			S325.736,213.783,328.494,213.783z M134.757,213.783h17.92c2.758,0,5.002,2.244,5.002,5.002s-2.244,5.002-5.002,5.002h-17.92
			c-2.758,0-5.002-2.244-5.002-5.002S131.999,213.783,134.757,213.783z M115.412,213.784c-0.415,1.602-0.659,3.272-0.659,5.002
			c0.001,11.028,8.974,20.001,20.004,20.001h1.46v11.881c0,4.142,3.358,7.5,7.5,7.5c4.142,0,7.5-3.358,7.5-7.5v-11.881h1.46
			c11.029,0,20.002-8.973,20.002-20.002c0-1.73-0.244-3.4-0.659-5.002h137.131c-0.415,1.602-0.659,3.272-0.659,5.002
			c0,11.029,8.973,20.002,20.002,20.002h1.46v11.881c0,4.142,3.358,7.5,7.5,7.5c4.142,0,7.5-3.358,7.5-7.5v-11.881h1.46
			c11.029,0,20.002-8.973,20.002-20.002c0-1.73-0.244-3.4-0.659-5.002h10.534c-0.692,22.663-4.805,50.594-18.972,68.39
			c-8.713,10.944-17.226,12.994-18.102,13.18c-0.18,0.024-0.195,0.034-0.403,0.081c-17.738,3.989-32.918-4.892-47.434-13.959
			c-14.02-8.758-29.911-18.684-50.795-18.684c-20.884,0-36.777,9.926-50.799,18.684c-12.393,7.74-24.098,15.051-37.902,15.052
			c-11.22,0-19.911-4.655-27.155-13.279c-8.575-10.21-18.697-30.45-19.854-69.464H115.412z M115.249,391.15v-12.063h0.001
			c5.145-3.435,9.548-5.754,12.417-7.126c10.525,7.527,21.716,13.943,33.452,19.189H115.249z M181.753,406.151
			c2.92,7.591,7.286,14.461,12.819,20.287H115.25v-20.287H181.753z M365.921,497H115.25v-20.286h250.671V497z M365.922,461.714
			H115.25v-20.276h101.409c7.602,3.083,15.643,4.644,23.927,4.644s16.325-1.562,23.927-4.644h101.409V461.714z M196.727,403.057
			c14.094,3.25,28.776,4.973,43.859,4.973c15.083,0,29.765-1.723,43.859-4.973c-4.763,10.637-13.386,19.199-24.433,24.003
			c-6.137,2.669-12.673,4.022-19.426,4.022s-13.289-1.353-19.426-4.022C210.113,422.257,201.49,413.694,196.727,403.057z
			 M365.921,406.151v20.287h-79.322c5.533-5.826,9.899-12.695,12.818-20.287H365.921z M320.048,391.151
			c11.745-5.25,22.933-11.665,33.455-19.189c2.873,1.374,7.275,3.692,12.418,7.126v12.063h0H320.048z M415.339,249.67
			c-15.221,81.454-87.788,143.36-174.753,143.36c-86.966,0-159.532-61.906-174.752-143.361c-2.21-11.825-3.17-23.861-2.889-35.886
			h26.922c2.366,84.941,44.83,95.442,49.333,96.315c21.846,4.863,40.51-4.643,58.534-15.901
			c13.508-8.437,26.268-16.406,42.853-16.406c16.585,0,29.342,7.969,42.848,16.406c17.894,11.178,36.9,20.718,58.538,15.902
			c4.503-0.873,46.966-11.374,49.333-96.315h26.922c0.032,1.358,0.055,2.715,0.055,4.092
			C418.283,228.544,417.291,239.183,415.339,249.67z M429.922,106.458c1.17-1.638,2.479-3.184,3.916-4.621
			c6.877-6.877,16.023-10.665,25.754-10.665c2.512,0,5.004,0.256,7.446,0.762c2.281,10.903-0.533,22.161-7.67,30.72
			c-0.008,0.01-0.018,0.018-0.027,0.028c-4.117,4.926-9.482,8.719-15.524,10.899c-0.214-0.503-0.438-1.002-0.657-1.504
			C439.323,123.26,434.895,114.69,429.922,106.458z M431.2,245.839c0.175-1.169,0.338-2.34,0.491-3.513
			c2.409-18.462,2.07-37.324-1.009-55.687c5.739,0.945,11.155,3.612,15.431,7.551c5.966,5.495,9.713,13.364,9.713,22.094
			C455.827,231.001,445.19,243.281,431.2,245.839z M460.425,166.777c-1.896,0-3.8-0.151-5.688-0.449
			c-1.562-6.319-3.407-12.573-5.535-18.725c0.104-0.038,0.206-0.084,0.31-0.123c6.427-2.408,12.361-6.146,17.329-10.88
			c0.094-0.089,0.192-0.172,0.285-0.262c8.611,4.036,15.25,11.244,18.582,20.198C478.935,163.087,469.917,166.777,460.425,166.777z"
			/>
	</g>
</g>
<g>
</g>
<g>
</g>
<g>
</g>
<g>
</g>
<g>
</g>
<g>
</g>
<g>
</g>
<g>
</g>
<g>
</g>
<g>
</g>
<g>
</g>
<g>
</g>
<g>
</g>
<g>
</g>
<g>
</g>
</svg>
