<?xml version="1.0" encoding="iso-8859-1"?>
<!-- Generator: Adobe Illustrator 19.0.0, SVG Export Plug-In . SVG Version: 6.00 Build 0)  -->
<svg version="1.1" id="Capa_1" xmlns="http://www.w3.org/2000/svg" xmlns:xlink="http://www.w3.org/1999/xlink" x="0px" y="0px"
	 viewBox="0 0 512.001 512.001" style="enable-background:new 0 0 512.001 512.001;" xml:space="preserve">
<g>
	<g>
		<path d="M183.705,150.2c-39.59,0-76.574,15.667-104.138,44.117c-2.882,2.975-2.808,7.723,0.167,10.605
			c2.975,2.883,7.724,2.807,10.605-0.167c24.714-25.507,57.872-39.554,93.366-39.554c71.681,0,129.997,58.316,129.997,129.997
			s-58.316,129.997-129.997,129.997c-71.68,0-129.997-58.316-129.997-129.997c0-24.028,6.609-47.5,19.113-67.879
			c2.167-3.531,1.06-8.149-2.47-10.315c-3.531-2.167-8.148-1.06-10.315,2.47c-13.953,22.741-21.328,48.926-21.328,75.724
			c0,79.952,65.045,144.997,144.997,144.997c79.951-0.001,144.997-65.046,144.997-144.998S263.657,150.2,183.705,150.2z"/>
	</g>
</g>
<g>
	<g>
		<path d="M183.703,204.943c-52.839,0-95.828,42.988-95.828,95.828c0,26.667,10.696,44.272,32.659,53.655v9.608
			c0.002,11.81,9.61,21.417,21.419,21.417c5.308,0,10.171-1.941,13.917-5.15c3.746,3.209,8.609,5.15,13.917,5.15
			s10.171-1.941,13.917-5.15c3.746,3.209,8.609,5.15,13.917,5.15s10.171-1.941,13.917-5.15c3.746,3.209,8.609,5.15,13.917,5.15
			c11.81,0,21.417-9.608,21.417-21.417v-9.608c21.963-9.383,32.659-26.988,32.659-53.655
			C279.531,247.93,236.543,204.943,183.703,204.943z M236.922,342.194c-3.021,1.045-5.048,3.891-5.048,7.088v14.752
			c0,3.538-2.879,6.417-6.417,6.417c-3.539,0-6.417-2.879-6.417-6.417c0-4.143-3.358-7.5-7.5-7.5c-4.142,0-7.5,3.357-7.5,7.5
			c0,3.538-2.878,6.417-6.417,6.417s-6.417-2.879-6.417-6.417c0-4.143-3.358-7.5-7.5-7.5c-4.142,0-7.5,3.357-7.5,7.5
			c0,3.538-2.879,6.417-6.417,6.417c-3.539,0-6.417-2.879-6.417-6.417c0-4.143-3.358-7.5-7.5-7.5c-4.142,0-7.5,3.357-7.5,7.5
			c0,3.538-2.879,6.417-6.417,6.417c-3.539,0-6.417-2.879-6.417-6.417v-14.752c0-3.197-2.026-6.042-5.048-7.088
			c-19.097-6.607-27.613-19.382-27.613-41.424c0-44.569,36.259-80.828,80.828-80.828c44.569,0,80.828,36.259,80.828,80.828
			C264.533,322.812,256.017,335.587,236.922,342.194z"/>
	</g>
</g>
<g>
	<g>
		<path d="M136.943,305.5c-4.142,0-7.5,3.358-7.5,7.5v8.463c0,4.142,3.358,7.5,7.5,7.5c4.142,0,7.5-3.358,7.5-7.5V313
			C144.443,308.858,141.085,305.5,136.943,305.5z"/>
	</g>
</g>
<g>
	<g>
		<path d="M230.467,305.5c-4.142,0-7.5,3.358-7.5,7.5v8.463c0,4.142,3.358,7.5,7.5,7.5c4.142,0,7.5-3.358,7.5-7.5V313
			C237.967,308.858,234.609,305.5,230.467,305.5z"/>
	</g>
</g>
<g>
	<g>
		<path d="M484.134,33.099H204.072c-15.366,0-27.867,12.501-27.867,27.867v50.691C78.375,115.607,0,196.414,0,295.196
			c0,101.295,82.41,183.705,183.705,183.705h300.429c15.366,0,27.867-12.501,27.867-27.867V60.966
			C512.001,45.6,499.5,33.099,484.134,33.099z M15,295.196c0-93.024,75.681-168.705,168.705-168.705
			c27.725,0,55.34,6.887,79.743,20.072c49.274,26.624,83.057,77.256,88.238,133.075c0.013,0.137,0.024,0.274,0.037,0.411
			c5.982,67.243-30.055,133.352-90.096,164.752c-23.688,12.388-50.904,19.099-77.921,19.099C90.681,463.901,15,388.22,15,295.196z
			 M497,451.033c0,7.095-5.772,12.867-12.867,12.867H256.487c6.627-2.857,13.091-6.11,19.354-9.749
			c25.794-14.985,47.688-36.161,63.545-61.412H497V451.033z M497,377.741H347.845c2.504-4.979,4.764-10.071,6.802-15.253
			c7.016-17.842,11.229-36.77,12.413-55.907H497V377.741z M497,291.58H367.374c-0.003-0.174-0.013-0.348-0.017-0.521
			c-0.542-24.293-5.946-48.439-15.828-70.639H497V291.58z M497,119.259c0,0-47.269,0-47.323,0c-4.352,0-7.9,3.945-7.461,8.267
			c0.379,3.733,3.717,6.733,7.461,6.733H497v71.16H343.979c-7.35-13.082-16.375-25.278-26.682-36.182
			c-12.978-13.757-28.051-25.513-44.704-34.76c-0.127-0.071-0.251-0.147-0.379-0.218h147.462c3.766,0,7.082-2.978,7.461-6.733
			c0.441-4.36-3.074-8.267-7.461-8.267H236.702c-0.841-0.253-5.938-1.662-7.65-2.099c-12.371-3.143-25.093-4.997-37.847-5.518
			V60.966c0-7.095,5.772-12.867,12.867-12.867h280.062c7.094,0,12.866,5.772,12.866,12.867V119.259z"/>
	</g>
</g>
<g>
</g>
<g>
</g>
<g>
</g>
<g>
</g>
<g>
</g>
<g>
</g>
<g>
</g>
<g>
</g>
<g>
</g>
<g>
</g>
<g>
</g>
<g>
</g>
<g>
</g>
<g>
</g>
<g>
</g>
</svg>
